<svg width="151" height="48" viewBox="0 0 151 48" fill="none" xmlns="http://www.w3.org/2000/svg">
<g clip-path="url(#clip0_0_10)">
<rect x="0.5" width="150" height="48" rx="8" fill="#E8EFF2"/>
<path d="M19.6 18.784C20.304 18.784 20.9227 18.928 21.456 19.216C21.9893 19.504 22.4 19.9147 22.688 20.448C22.9867 20.9707 23.136 21.5733 23.136 22.256C23.136 22.928 22.9813 23.52 22.672 24.032C22.3733 24.544 21.9467 24.944 21.392 25.232C20.848 25.5093 20.2187 25.648 19.504 25.648H17.248C17.184 25.648 17.152 25.68 17.152 25.744V29.728C17.152 29.9093 17.0613 30 16.88 30H15.168C14.9867 30 14.896 29.9093 14.896 29.728V19.056C14.896 18.8747 14.9867 18.784 15.168 18.784H19.6ZM19.264 23.84C19.7547 23.84 20.1493 23.7013 20.448 23.424C20.7467 23.136 20.896 22.7627 20.896 22.304C20.896 21.8347 20.7467 21.456 20.448 21.168C20.1493 20.88 19.7547 20.736 19.264 20.736H17.248C17.184 20.736 17.152 20.768 17.152 20.832V23.744C17.152 23.808 17.184 23.84 17.248 23.84H19.264ZM30.7309 30C30.5922 30 30.4855 29.9307 30.4109 29.792L28.4429 25.44C28.4215 25.3867 28.3842 25.36 28.3309 25.36H26.8749C26.8109 25.36 26.7789 25.392 26.7789 25.456V29.728C26.7789 29.9093 26.6882 30 26.5069 30H24.7949C24.6135 30 24.5229 29.9093 24.5229 29.728V19.056C24.5229 18.8747 24.6135 18.784 24.7949 18.784H29.2909C29.9735 18.784 30.5709 18.928 31.0829 19.216C31.6055 19.4933 32.0055 19.888 32.2829 20.4C32.5709 20.912 32.7149 21.4987 32.7149 22.16C32.7149 22.8853 32.5335 23.5093 32.1709 24.032C31.8082 24.5547 31.3069 24.9227 30.6669 25.136C30.6349 25.1467 30.6135 25.168 30.6029 25.2C30.5922 25.2213 30.5975 25.2427 30.6189 25.264L32.7309 29.68C32.7629 29.7227 32.7789 29.7707 32.7789 29.824C32.7789 29.8773 32.7575 29.92 32.7149 29.952C32.6722 29.984 32.6135 30 32.5389 30H30.7309ZM26.8749 20.736C26.8109 20.736 26.7789 20.768 26.7789 20.832V23.52C26.7789 23.584 26.8109 23.616 26.8749 23.616H28.9549C29.4029 23.616 29.7655 23.488 30.0429 23.232C30.3309 22.9653 30.4749 22.6187 30.4749 22.192C30.4749 21.7653 30.3309 21.4187 30.0429 21.152C29.7655 20.8747 29.4029 20.736 28.9549 20.736H26.8749ZM42.127 20.464C42.127 20.6453 42.0363 20.736 41.855 20.736H36.703C36.639 20.736 36.607 20.768 36.607 20.832V23.28C36.607 23.344 36.639 23.376 36.703 23.376H40.047C40.2283 23.376 40.319 23.4667 40.319 23.648V25.04C40.319 25.2213 40.2283 25.312 40.047 25.312H36.703C36.639 25.312 36.607 25.344 36.607 25.408V27.968C36.607 28.032 36.639 28.064 36.703 28.064H41.855C42.0363 28.064 42.127 28.1547 42.127 28.336V29.728C42.127 29.9093 42.0363 30 41.855 30H34.623C34.4417 30 34.351 29.9093 34.351 29.728V19.072C34.351 18.8907 34.4417 18.8 34.623 18.8H41.855C42.0363 18.8 42.127 18.8907 42.127 19.072V20.464ZM43.4548 26.24C43.2734 26.24 43.1828 26.1493 43.1828 25.968V24.576C43.1828 24.3947 43.2734 24.304 43.4548 24.304H48.5268C48.7081 24.304 48.7988 24.3947 48.7988 24.576V25.968C48.7988 26.1493 48.7081 26.24 48.5268 26.24H43.4548ZM54.2256 30.176C53.3936 30.176 52.6576 30.0053 52.0176 29.664C51.3883 29.3227 50.8976 28.848 50.5456 28.24C50.1936 27.6213 50.0176 26.912 50.0176 26.112V22.688C50.0176 21.8987 50.1936 21.2 50.5456 20.592C50.8976 19.984 51.3883 19.5147 52.0176 19.184C52.6576 18.8427 53.3936 18.672 54.2256 18.672C55.0683 18.672 55.8043 18.8427 56.4336 19.184C57.0736 19.5147 57.5696 19.984 57.9216 20.592C58.2736 21.2 58.4496 21.8987 58.4496 22.688V26.112C58.4496 26.912 58.2736 27.6213 57.9216 28.24C57.5696 28.8587 57.0736 29.3387 56.4336 29.68C55.8043 30.0107 55.0683 30.176 54.2256 30.176ZM54.2256 28.24C54.8123 28.24 55.287 28.0533 55.6496 27.68C56.0123 27.3067 56.1936 26.8107 56.1936 26.192V22.672C56.1936 22.0533 56.0123 21.5573 55.6496 21.184C55.2976 20.8 54.823 20.608 54.2256 20.608C53.639 20.608 53.1643 20.8 52.8016 21.184C52.4496 21.5573 52.2736 22.0533 52.2736 22.672V26.192C52.2736 26.8107 52.4496 27.3067 52.8016 27.68C53.1643 28.0533 53.639 28.24 54.2256 28.24ZM66.3871 30C66.2485 30 66.1418 29.9307 66.0671 29.792L64.0991 25.44C64.0778 25.3867 64.0405 25.36 63.9871 25.36H62.5311C62.4671 25.36 62.4351 25.392 62.4351 25.456V29.728C62.4351 29.9093 62.3445 30 62.1631 30H60.4511C60.2698 30 60.1791 29.9093 60.1791 29.728V19.056C60.1791 18.8747 60.2698 18.784 60.4511 18.784H64.9471C65.6298 18.784 66.2271 18.928 66.7391 19.216C67.2618 19.4933 67.6618 19.888 67.9391 20.4C68.2271 20.912 68.3711 21.4987 68.3711 22.16C68.3711 22.8853 68.1898 23.5093 67.8271 24.032C67.4645 24.5547 66.9631 24.9227 66.3231 25.136C66.2911 25.1467 66.2698 25.168 66.2591 25.2C66.2485 25.2213 66.2538 25.2427 66.2751 25.264L68.3871 29.68C68.4191 29.7227 68.4351 29.7707 68.4351 29.824C68.4351 29.8773 68.4138 29.92 68.3711 29.952C68.3285 29.984 68.2698 30 68.1951 30H66.3871ZM62.5311 20.736C62.4671 20.736 62.4351 20.768 62.4351 20.832V23.52C62.4351 23.584 62.4671 23.616 62.5311 23.616H64.6111C65.0591 23.616 65.4218 23.488 65.6991 23.232C65.9871 22.9653 66.1311 22.6187 66.1311 22.192C66.1311 21.7653 65.9871 21.4187 65.6991 21.152C65.4218 20.8747 65.0591 20.736 64.6111 20.736H62.5311ZM70.2793 30C70.0979 30 70.0073 29.9093 70.0073 29.728V19.072C70.0073 18.8907 70.0979 18.8 70.2793 18.8H74.1993C74.9993 18.8 75.6979 18.944 76.2953 19.232C76.9033 19.5093 77.3726 19.904 77.7033 20.416C78.0339 20.928 78.1993 21.52 78.1993 22.192V26.608C78.1993 27.28 78.0339 27.872 77.7033 28.384C77.3726 28.896 76.9033 29.296 76.2953 29.584C75.6979 29.8613 74.9993 30 74.1993 30H70.2793ZM72.2633 27.968C72.2633 28.032 72.2953 28.064 72.3593 28.064H74.2793C74.7699 28.064 75.1646 27.8987 75.4633 27.568C75.7726 27.2373 75.9326 26.7947 75.9433 26.24V22.56C75.9433 22.0053 75.7886 21.5627 75.4793 21.232C75.1806 20.9013 74.7753 20.736 74.2633 20.736H72.3593C72.2953 20.736 72.2633 20.768 72.2633 20.832V27.968ZM87.6739 20.464C87.6739 20.6453 87.5832 20.736 87.4019 20.736H82.2499C82.1859 20.736 82.1539 20.768 82.1539 20.832V23.28C82.1539 23.344 82.1859 23.376 82.2499 23.376H85.5939C85.7752 23.376 85.8659 23.4667 85.8659 23.648V25.04C85.8659 25.2213 85.7752 25.312 85.5939 25.312H82.2499C82.1859 25.312 82.1539 25.344 82.1539 25.408V27.968C82.1539 28.032 82.1859 28.064 82.2499 28.064H87.4019C87.5832 28.064 87.6739 28.1547 87.6739 28.336V29.728C87.6739 29.9093 87.5832 30 87.4019 30H80.1699C79.9885 30 79.8979 29.9093 79.8979 29.728V19.072C79.8979 18.8907 79.9885 18.8 80.1699 18.8H87.4019C87.5832 18.8 87.6739 18.8907 87.6739 19.072V20.464ZM95.4496 30C95.311 30 95.2043 29.9307 95.1296 29.792L93.1616 25.44C93.1403 25.3867 93.103 25.36 93.0496 25.36H91.5936C91.5296 25.36 91.4976 25.392 91.4976 25.456V29.728C91.4976 29.9093 91.407 30 91.2256 30H89.5136C89.3323 30 89.2416 29.9093 89.2416 29.728V19.056C89.2416 18.8747 89.3323 18.784 89.5136 18.784H94.0096C94.6923 18.784 95.2896 18.928 95.8016 19.216C96.3243 19.4933 96.7243 19.888 97.0016 20.4C97.2896 20.912 97.4336 21.4987 97.4336 22.16C97.4336 22.8853 97.2523 23.5093 96.8896 24.032C96.527 24.5547 96.0256 24.9227 95.3856 25.136C95.3536 25.1467 95.3323 25.168 95.3216 25.2C95.311 25.2213 95.3163 25.2427 95.3376 25.264L97.4496 29.68C97.4816 29.7227 97.4976 29.7707 97.4976 29.824C97.4976 29.8773 97.4763 29.92 97.4336 29.952C97.391 29.984 97.3323 30 97.2576 30H95.4496ZM91.5936 20.736C91.5296 20.736 91.4976 20.768 91.4976 20.832V23.52C91.4976 23.584 91.5296 23.616 91.5936 23.616H93.6736C94.1216 23.616 94.4843 23.488 94.7616 23.232C95.0496 22.9653 95.1936 22.6187 95.1936 22.192C95.1936 21.7653 95.0496 21.4187 94.7616 21.152C94.4843 20.8747 94.1216 20.736 93.6736 20.736H91.5936ZM102.545 30C102.364 30 102.273 29.9093 102.273 29.728V19.072C102.273 18.8907 102.364 18.8 102.545 18.8H104.193C104.332 18.8 104.438 18.8587 104.513 18.976L108.513 25.632C108.534 25.6747 108.556 25.6907 108.577 25.68C108.609 25.6693 108.625 25.6427 108.625 25.6V19.072C108.625 18.8907 108.716 18.8 108.897 18.8H110.577C110.758 18.8 110.849 18.8907 110.849 19.072V29.728C110.849 29.9093 110.758 30 110.577 30H108.945C108.817 30 108.71 29.936 108.625 29.808L104.609 23.088C104.588 23.0453 104.561 23.0293 104.529 23.04C104.508 23.0507 104.497 23.0773 104.497 23.12L104.513 29.728C104.513 29.9093 104.422 30 104.241 30H102.545ZM116.788 30.176C115.956 30.176 115.22 30.0053 114.58 29.664C113.951 29.3227 113.46 28.848 113.108 28.24C112.756 27.6213 112.58 26.912 112.58 26.112V22.688C112.58 21.8987 112.756 21.2 113.108 20.592C113.46 19.984 113.951 19.5147 114.58 19.184C115.22 18.8427 115.956 18.672 116.788 18.672C117.631 18.672 118.367 18.8427 118.996 19.184C119.636 19.5147 120.132 19.984 120.484 20.592C120.836 21.2 121.012 21.8987 121.012 22.688V26.112C121.012 26.912 120.836 27.6213 120.484 28.24C120.132 28.8587 119.636 29.3387 118.996 29.68C118.367 30.0107 117.631 30.176 116.788 30.176ZM116.788 28.24C117.375 28.24 117.849 28.0533 118.212 27.68C118.575 27.3067 118.756 26.8107 118.756 26.192V22.672C118.756 22.0533 118.575 21.5573 118.212 21.184C117.86 20.8 117.385 20.608 116.788 20.608C116.201 20.608 115.727 20.8 115.364 21.184C115.012 21.5573 114.836 22.0533 114.836 22.672V26.192C114.836 26.8107 115.012 27.3067 115.364 27.68C115.727 28.0533 116.201 28.24 116.788 28.24ZM124.721 30C124.55 30 124.449 29.92 124.417 29.76L121.601 19.104C121.59 19.0827 121.585 19.056 121.585 19.024C121.585 18.8747 121.67 18.8 121.841 18.8H123.665C123.825 18.8 123.921 18.88 123.953 19.04L125.457 25.424C125.468 25.4667 125.489 25.488 125.521 25.488C125.553 25.488 125.574 25.4667 125.585 25.424L127.025 19.04C127.057 18.88 127.153 18.8 127.313 18.8H129.121C129.292 18.8 129.393 18.88 129.425 19.04L130.993 25.424C131.004 25.4667 131.02 25.488 131.041 25.488C131.073 25.488 131.094 25.4667 131.105 25.424L132.545 19.04C132.577 18.88 132.673 18.8 132.833 18.8H134.577C134.673 18.8 134.737 18.832 134.769 18.896C134.812 18.9493 134.822 19.0187 134.801 19.104L132.225 29.76C132.193 29.92 132.092 30 131.921 30H130.161C129.99 30 129.889 29.92 129.857 29.76L128.257 22.96C128.246 22.9173 128.225 22.896 128.193 22.896C128.161 22.896 128.14 22.9173 128.129 22.96L126.641 29.76C126.609 29.92 126.513 30 126.353 30H124.721Z" fill="#162542"/>
</g>
<defs>
<clipPath id="clip0_0_10">
<rect width="151" height="48" fill="white"/>
</clipPath>
</defs>
</svg>
